<?xml version="1.0" encoding="utf-8"?>
<!-- Generator: Adobe Illustrator 25.0.0, SVG Export Plug-In . SVG Version: 6.00 Build 0)  -->
<svg version="1.1" id="Livello_1" xmlns="http://www.w3.org/2000/svg" xmlns:xlink="http://www.w3.org/1999/xlink" x="0px" y="0px"
	 viewBox="0 0 1300 1300" style="enable-background:new 0 0 1300 1300;" xml:space="preserve">
<g>
	<path d="M650,11.1C297.1,11.1,11.1,297.1,11.1,650s286.1,638.9,638.9,638.9s638.9-286.1,638.9-638.9S1002.9,11.1,650,11.1z
		 M448.7,853.3l-25.8-93.9H293l-23.4,93.9H144.2L274,389.7h171.9l135.7,463.5H448.7z M996.2,853.3V703.2c0-71.9,1.4-170.3,3.4-225.2
		h-4.3c-17.5,100.3-50.2,254.9-80.2,375.3H812.4c-23.2-114.9-54.9-273.1-71.1-375.2h-4.5c3.6,54.2,5.9,148.9,5.9,228.8v146.4H628.6
		V389.7h183.9c21,83.7,48.5,227.1,57.8,294.6h2.3c10.6-72.7,42.8-199.3,67.5-294.6h178.5v463.5H996.2z"/>
	<path d="M355.4,475.5c-9.4,51-25.2,118.2-42.5,184.3h89c-18.8-69.7-34.9-136.6-44.5-184.3H355.4z"/>
</g>
</svg>