<?xml version="1.0" encoding="utf-8"?>
<!-- Generator: Adobe Illustrator 25.0.0, SVG Export Plug-In . SVG Version: 6.00 Build 0)  -->
<svg version="1.1" id="Livello_2_1_" xmlns="http://www.w3.org/2000/svg" xmlns:xlink="http://www.w3.org/1999/xlink" x="0px"
	 y="0px" viewBox="0 0 264.8 264.8" style="enable-background:new 0 0 264.8 264.8;" xml:space="preserve">
<path d="M140.1,127.9c0-2.9-1.8-4.2-4.8-4.2h-3.7v8.7h3.5C138.4,132.4,140.1,131,140.1,127.9z"/>
<path d="M224.8,0H40C18,0,0,18,0,40v184.8c0,22,18,40,40,40h184.8c22,0,40-18,40-40V40C264.8,18,246.8,0,224.8,0z M36.2,38.1h20.4
	v20.4H36.2V38.1z M83.7,105.7H50.4V72.4h33.3V105.7z M86.4,141.7h0.2c1.3-7.4,3.4-16.6,5-24.9h8.7c1.4,6.9,3.5,17,4.7,24.5h0.2
	c0.8-7.3,3-19.3,3.7-24.5h9.4l-8.3,35.5h-10c-1.4-7.2-3.3-15.3-4.4-22.3h-0.1c-1.2,6.8-3.3,15.6-4.6,22.3H80.6l-7.7-35.5h10.3
	C84.2,123.7,85.7,134.3,86.4,141.7z M41.9,60.2v20.4H21.5V60.2H41.9z M18.5,22h14.4v14.4H18.5V22z M8.1,37.5h14.4v14.4H8.1V37.5z
	 M116.1,241.7c-49.6-6.9-86.9-45.6-94-92.7H7.4l28.4-37.9L65,149H47c6.9,34.9,35.2,63.2,72.4,68.4c45.6,6.3,87.8-24.4,96.1-69.2
	l9.7,17.1l14.9-15C230.5,209.2,175.5,250,116.1,241.7z M122,152.3v-35.5h14.7c7.1,0,13.2,3.7,13.2,11.2c0,7.7-5.7,11.6-13.8,11.6
	h-4.5v12.8H122V152.3z M182.8,123.5c-1.3,7.7-3.8,19.5-6.1,28.8h-7.9c-1.8-8.8-4.2-20.9-5.4-28.8H163c0.3,4.2,0.4,11.4,0.4,17.5
	v11.2h-8.7v-35.5h14.1c1.6,6.4,3.7,17.4,4.4,22.6h0.2c0.8-5.6,3.3-15.3,5.2-22.6h13.7v35.5h-9.4v-11.5c0-5.5,0.1-13,0.3-17.3
	L182.8,123.5L182.8,123.5z M228.9,152.3l-29.1-37.9h15.3c-7.4-34.3-35.4-61.9-72.1-67c-22.2-3.1-43.7,2.7-60.8,14.6l-15-19.5
	C89.3,26.7,117.3,19,146.4,23c49.1,6.8,86.1,44.9,93.8,91.3h17.2L228.9,152.3z"/>
</svg>
