<?xml version="1.0" encoding="utf-8"?>
<!-- Generator: Adobe Illustrator 25.0.0, SVG Export Plug-In . SVG Version: 6.00 Build 0)  -->
<svg version="1.1" id="Livello_2_1_" xmlns="http://www.w3.org/2000/svg" xmlns:xlink="http://www.w3.org/1999/xlink" x="0px"
	 y="0px" viewBox="0 0 264.8 264.8" style="enable-background:new 0 0 264.8 264.8;" xml:space="preserve">
<path d="M224.8,0H40C18,0,0,18,0,40v184.8c0,22,18,40,40,40h184.8c22,0,40-18,40-40V40C264.8,18,246.8,0,224.8,0z M36.2,38.1h20.4
	v20.4H36.2V38.1z M41.9,60.2v20.4H21.5V60.2H41.9z M18.5,22h14.4v14.4H18.5V22z M8.1,37.5h14.4v14.4H8.1V37.5z M116.1,241.7
	c-49.6-6.9-86.9-45.6-94-92.7H7.4l28.4-37.9L65,149H47c6.9,34.9,35.2,63.2,72.4,68.4c45.6,6.3,87.8-24.4,96.1-69.2l9.7,17.1l14.9-15
	C230.5,209.2,175.5,250,116.1,241.7z M163.2,91c-4.6,20-14.4,52.6-23.8,83.2h-18c-7.1-26.8-17.3-63.9-21.6-83.5h-0.7
	c0.8,11.5,1.2,31.6,1.2,48.4v35.1H81.2V76.3h31.5c7.6,25.6,16.2,57.7,19.1,72.3h0.2c2.4-12.9,13.2-47.2,21.3-72.3h30.4v97.9h-20.4
	v-36.7c0-16.7,0.3-35.4,0.7-46.5H163.2z M228.9,152.3l-29.1-37.9h15.3c-7.4-34.3-35.4-61.9-72.1-67c-22.2-3.1-43.7,2.7-60.8,14.6
	l-15-19.5C89.3,26.7,117.3,19,146.4,23c49.1,6.8,86.1,44.9,93.8,91.3h17.2L228.9,152.3z"/>
</svg>
